<svg xmlns="http://www.w3.org/2000/svg" viewBox="0 0 64 64" role="img" aria-label="Sine favicon">
  <defs>
    <linearGradient id="bg" x1="10%" y1="10%" x2="90%" y2="90%">
      <stop offset="0%" stop-color="#0f766e" />
      <stop offset="100%" stop-color="#f59e0b" />
    </linearGradient>
  </defs>
  <rect x="4" y="4" width="56" height="56" rx="18" fill="url(#bg)" />
  <path d="M40.9 20.7c-2.1-2.1-5-3.2-8.7-3.2-6.8 0-11.8 3.4-11.8 8.8 0 4.3 3 6.7 9.8 8l4.2.8c3.1.6 4.3 1.3 4.3 2.8 0 1.9-2.3 3.2-6 3.2-3.8 0-6.4-1.2-8.6-3.9l-4.8 4.7c2.8 3.6 7.5 5.5 13.2 5.5 8 0 13.2-3.6 13.2-9.4 0-4.5-2.7-6.8-9.6-8.2l-4.4-.9c-3.3-.7-4.3-1.3-4.3-2.7 0-1.8 1.9-2.9 5.3-2.9 3 0 5.2.9 7 2.8l5.2-5.4Z" fill="#fffdf8" />
</svg>
